<svg id="Layer_1" data-name="Layer 1" xmlns="http://www.w3.org/2000/svg" viewBox="0 0 1000 367.27"><defs><style>.cls-1{fill:#fff;}</style></defs><rect width="1000" height="367.27"/><path class="cls-1" d="M600.06,137.59a3.8,3.8,0,0,0-3.71,3.85v80.68l-69.13-81.37a7.32,7.32,0,0,0-5.59-3.16h-1.78a6.33,6.33,0,0,0-4.55,1.94,6.63,6.63,0,0,0-1.9,4.65V226a3.67,3.67,0,0,0,3.71,3.72A3.79,3.79,0,0,0,521,226V145.16L590.39,227a6.55,6.55,0,0,0,5.29,2.72h1.64a6.53,6.53,0,0,0,6.59-6.45v-81.8A3.91,3.91,0,0,0,600.06,137.59Z"/><path class="cls-1" d="M700.79,137.59c-1,0-2.22.24-3.54,2.21l-34.58,47.6L628,139.65a3.86,3.86,0,0,0-3.43-2.06,3.52,3.52,0,0,0-2.59,1.07,3.69,3.69,0,0,0-1,2.78,4.42,4.42,0,0,0,.56,2.16l37.28,50.05V226a3.78,3.78,0,0,0,3.84,3.72,3.67,3.67,0,0,0,3.71-3.72V193.65l37.24-49.82a4.48,4.48,0,0,0,.73-2.5,3.63,3.63,0,0,0-1-2.67A3.55,3.55,0,0,0,700.79,137.59Z"/><path class="cls-1" d="M768.92,138.28H725.21a3.78,3.78,0,0,0-3.71,3.84V226a3.67,3.67,0,0,0,3.71,3.72,3.79,3.79,0,0,0,3.85-3.72V194.2h39.86c31.66,0,34.13-21.4,34.13-28S800.59,138.28,768.92,138.28Zm-1.23,49.05H729.06V145.14h38.63c24.2,0,27.81,13.22,27.81,21.1S791.89,187.33,767.69,187.33Z"/><path class="cls-1" d="M896.53,222.57H827.67V187.45h50.59a3.47,3.47,0,1,0,0-6.94H827.67V145.24h68.86a3.47,3.47,0,1,0,0-6.94H824.19a3.48,3.48,0,0,0-3.47,3.47V226a3.48,3.48,0,0,0,3.47,3.47h72.34a3.47,3.47,0,1,0,0-6.94Z"/><path class="cls-1" d="M458.23,155.37a21.76,21.76,0,0,0-21.59-20.93H337.57l45.2,168.82L457,163.35v0l-.08,0A20.1,20.1,0,0,0,458.23,155.37Z"/><path class="cls-1" d="M102,202.59l0,.06h0A20.51,20.51,0,0,0,100,212a21.77,21.77,0,0,0,19.5,20.81H220.73L175.5,64Z"/><path class="cls-1" d="M321.05,134.44,298.43,73.58a21.78,21.78,0,0,0-19.75-12.92l-92.59,0A20.18,20.18,0,0,0,175.5,64l61.73,168.81,21.4,58.51h0a21.76,21.76,0,0,0,20.62,15.28h92.28a20.18,20.18,0,0,0,11.22-3.36L321,134.44Z"/></svg>