<svg version="1.2" xmlns="http://www.w3.org/2000/svg" viewBox="0 0 512 512" width="512" height="512">
	<title>nype_logo_main-svg</title>
	<defs>
		<linearGradient id="g1" x2="1" gradientUnits="userSpaceOnUse" gradientTransform="matrix(190.041,0,0,233.763,314.158,305.099)">
			<stop offset="0" stop-color="#0069c8" stop-opacity=".2"/>
			<stop offset=".04" stop-color="#0069c8" stop-opacity=".25"/>
			<stop offset=".2" stop-color="#0069c8" stop-opacity=".48"/>
			<stop offset=".36" stop-color="#0069c8" stop-opacity=".67"/>
			<stop offset=".53" stop-color="#0069c8" stop-opacity=".81"/>
			<stop offset=".69" stop-color="#0069c8" stop-opacity=".92"/>
			<stop offset=".85" stop-color="#0069c8" stop-opacity=".98"/>
			<stop offset="1" stop-color="#0069c8" stop-opacity="1"/>
		</linearGradient>
		<linearGradient id="g2" x2="1" gradientUnits="userSpaceOnUse" gradientTransform="matrix(159.93,-58.213,85.157,233.955,-4.428,265.708)">
			<stop offset="0" stop-color="#00e6c8" stop-opacity="1"/>
			<stop offset=".15" stop-color="#00e6c8" stop-opacity=".98"/>
			<stop offset=".31" stop-color="#00e6c8" stop-opacity=".93"/>
			<stop offset=".47" stop-color="#00e6c8" stop-opacity=".84"/>
			<stop offset=".63" stop-color="#00e6c8" stop-opacity=".71"/>
			<stop offset=".8" stop-color="#00e6c8" stop-opacity=".55"/>
			<stop offset=".96" stop-color="#00e6c8" stop-opacity=".35"/>
			<stop offset="1" stop-color="#00e6c8" stop-opacity=".3"/>
		</linearGradient>
		<linearGradient id="g3" x2="1" gradientUnits="userSpaceOnUse" gradientTransform="matrix(287.076,0,0,340.668,112.58,256.332)">
			<stop offset="0" stop-color="#00e6c8"/>
			<stop offset="1" stop-color="#0069c8"/>
		</linearGradient>
	</defs>
	<style>
		.s0 { fill: url(#g1) } 
		.s1 { fill: url(#g2) } 
		.s2 { fill: url(#g3) } 
	</style>
	<g id="Folder 1">
		<path id="Layer" class="s0" d="m504.2 217.2c-0.2-3.9-1.1-7.6-2.6-11.2-1.6-3.5-3.8-6.6-6.6-9.3-2.7-2.7-6-4.8-9.5-6.3-3.6-1.4-7.4-2.2-11.2-2.2h-160.2l85.5 233.8q1.5-1 2.9-2.2 1.4-1.2 2.6-2.6 1.2-1.4 2.3-2.9 1-1.5 1.8-3.2l93.3-182.9h-0.1q0.5-1.3 0.8-2.7 0.4-1.3 0.6-2.7 0.2-1.4 0.3-2.8 0.1-1.4 0.1-2.8z"/>
		<path id="Layer" class="s1" d="m112.6 90.6q-1.7 1.1-3.2 2.5-1.5 1.3-2.8 2.9-1.3 1.6-2.4 3.3-1.1 1.7-1.9 3.6l-91.5 179.7v0.1q-0.7 1.5-1.3 3.1-0.5 1.5-0.9 3.2-0.3 1.6-0.5 3.3-0.1 1.6-0.1 3.3c0.2 3.6 0.9 7.1 2.3 10.5 1.4 3.3 3.4 6.3 5.8 9 2.5 2.6 5.4 4.7 8.6 6.3 3.3 1.6 6.8 2.7 10.3 3h163.1z"/>
		<path id="Layer" class="s2" d="m314.1 188.2l-31.3-84.3c-1.1-2.6-2.7-5.1-4.5-7.3-1.9-2.2-4.1-4.1-6.5-5.7-2.4-1.6-5-2.8-7.8-3.6-2.8-0.8-5.6-1.3-8.5-1.3h-128.3q-1.9 0.1-3.8 0.4-1.9 0.3-3.8 0.9-1.9 0.6-3.6 1.4-1.8 0.9-3.4 1.9l85.5 233.8 29.6 81.1c1 3 2.4 5.9 4.2 8.5 1.9 2.5 4.1 4.8 6.6 6.7 2.6 1.9 5.4 3.4 8.4 4.4 3.1 1 6.2 1.5 9.4 1.5h127.8q2.1 0 4.1-0.3 2-0.2 4-0.8 2-0.6 3.8-1.5 1.9-0.9 3.6-2z"/>
	</g>
</svg>