<?xml version="1.0" standalone="no"?>
<!DOCTYPE svg PUBLIC "-//W3C//DTD SVG 20010904//EN" "http://www.w3.org/TR/2001/REC-SVG-20010904/DTD/svg10.dtd">
<svg version="1.2" xmlns="http://www.w3.org/2000/svg" viewBox="0 0 512 512" width="512" height="512">
<g fill="#000000" stroke="none">
<path d="m506.6 216.3c-0.2-3.8-1.1-7.6-2.6-11.2-1.6-3.5-3.9-6.7-6.6-9.4-2.8-2.7-6.1-4.9-9.7-6.3-3.6-1.5-7.4-2.3-11.3-2.3h-138.4l63.1 235.9 103.8-195.5h-0.2q0.5-1.3 0.9-2.7 0.4-1.4 0.6-2.8 0.3-1.4 0.3-2.8 0.1-1.4 0.1-2.9z"/>
<path d="m8.8 282.3v0.1q-0.7 1.5-1.3 3.1-0.5 1.6-0.9 3.3-0.3 1.6-0.5 3.3-0.1 1.7-0.1 3.4c0.1 3.6 0.9 7.2 2.3 10.5 1.4 3.4 3.4 6.4 5.9 9.1 2.5 2.6 5.4 4.8 8.7 6.4 3.2 1.7 6.7 2.7 10.4 3h141.4l-63.2-235.8z"/>
<path d="m314.9 187.1l-31.6-85c-1.2-2.7-2.8-5.2-4.6-7.4-1.9-2.2-4.1-4.1-6.6-5.7-2.4-1.6-5-2.9-7.8-3.7-2.8-0.8-5.7-1.3-8.6-1.3h-129.4q-2 0.1-3.9 0.4-1.9 0.3-3.8 0.9-1.9 0.6-3.7 1.4-1.8 0.9-3.4 2l86.3 235.8 29.9 81.8c0.9 3.1 2.4 6 4.2 8.6 1.9 2.6 4.1 4.9 6.7 6.8 2.6 1.9 5.4 3.4 8.5 4.4 3 1 6.2 1.5 9.4 1.6h128.9q2.1 0 4.2-0.3 2-0.3 4-0.9 2-0.6 3.9-1.5 1.9-0.9 3.6-2l-86.3-235.9z"/>
</g>
</svg>